# xmcd CD Database Entry
#
# Track frame offsets:
# 150
# 14265
# 25810
# 39007
# 50721
# 64198
# 75767
# 88084
# 99789
# 112156
# 124828
# 139760
# 150086
# 161888
#
# Disc length: 2315 seconds
#
# Revision: 1
# Processed by: cddbd v1.4PL0 Copyright (c) Steve Scherf et al.
# Submitted via: tcd 2.0b
#
DISCID=a209090e
DTITLE=Muddy Waters - Blues Legend Cd3
DYEAR=1900
DGENRE=
TTITLE0=Rollin' Stone
TTITLE1=Little Anna Mae
TTITLE2=Down South Blues
TTITLE3=Whiskey Blues
TTITLE4=Rollin' And Tumblin'
TTITLE5=Gypsy Woman
TTITLE6=Good Looking Woman
TTITLE7=Mean Disposition
TTITLE8=I Can't Be Satisfied
TTITLE9=Train Fare Home Blues
TTITLE10=Streamline Woman
TTITLE11=Mean Red Spider
TTITLE12=Kind Hearted Woman
TTITLE13=You're Gonna Miss Me When I'm Gone
EXTD=
EXTT0=
EXTT1=
EXTT2=
EXTT3=
EXTT4=
EXTT5=
EXTT6=
EXTT7=
EXTT8=
EXTT9=
EXTT10=
EXTT11=
EXTT12=
EXTT13=
PLAYORDER=
